<svg xmlns="http://www.w3.org/2000/svg" viewBox="0 0 500 500"><g id="freepik--Floor--inject-3"><path d="M401.89,267.21c-84.44-48.75-220.89-48.75-304.77,0S13.67,395,98.1,443.75s220.9,48.75,304.79,0S486.33,316,401.89,267.21Z" style="fill:#f5f5f5"></path></g><g id="freepik--Shadows--inject-3"><path d="M293.84,264.79l-13-7.47a13.08,13.08,0,0,0-13.1,0L195.84,299l-6.35-3.65-52.07,30.47,6,3.46L58.28,378.45a4.37,4.37,0,0,0,0,7.57l13.11,7.56a13.12,13.12,0,0,0,13.11,0l85.1-49.22,10,5.73a26.23,26.23,0,0,0,26.19,0l30.59-17.67a5.82,5.82,0,0,0,0-10.09L222,314.06l12.08-7L261.5,322.9a8.39,8.39,0,0,1,0,14.53l-45.61,26.35a26.33,26.33,0,0,1-26.27,0,30.52,30.52,0,0,0-30.36-.06L137.11,376.4a9.43,9.43,0,0,0,0,16.37l12.71,7.32L145,402.83a2.18,2.18,0,0,0-1.1,1.82v.1a2.15,2.15,0,0,0,1.09,1.88l9.78,5.67-1.33.77a.5.5,0,0,0,0,.86l2.17,1.23a2,2,0,0,0,1.94,0l4.14-2.39,7.93,4.57a1.93,1.93,0,0,0,1.93,0l.82-.45a.5.5,0,0,0,0-.86l-8.18-4.72,5.51-3.18,8,4.64a1.92,1.92,0,0,0,1.94,0l.81-.45a.49.49,0,0,0,0-.85l-8.29-4.79,4.17-2.4-3.88-2.22-4.15,2.39-6.91-4-.41.23-2.86-1.66a6.59,6.59,0,0,0-6.56,0l-1.82,1,2.09-3.63-12.72-7.32a5.25,5.25,0,0,1,0-9.1l22.16-12.69a26.31,26.31,0,0,1,26.18.06,30.5,30.5,0,0,0,30.45,0l45.62-26.34a12.59,12.59,0,0,0,0-21.81l-25.34-14.63,55.59-32.27A4.37,4.37,0,0,0,293.84,264.79Z" style="fill:#e6e6e6"></path><path d="M374.81,358.05c-16.85-9.73-44.06-9.73-60.8,0s-16.64,25.49.2,35.21,44.06,9.73,60.8,0S391.65,367.77,374.81,358.05Z" style="fill:#e6e6e6"></path><path d="M426.1,327.78c-7.46-4.31-19.5-4.31-26.91,0s-7.37,11.28.09,15.58,19.5,4.31,26.91,0S433.55,332.08,426.1,327.78Z" style="fill:#e6e6e6"></path></g><g id="freepik--Monitor--inject-3"><path d="M149.8,398.23l-12.71-7.33a9.43,9.43,0,0,1,0-16.37l22.15-12.69a30.52,30.52,0,0,1,30.36.06,26.33,26.33,0,0,0,26.27,0l45.61-26.35a8.39,8.39,0,0,0,0-14.53l-46.17-26.66a10.52,10.52,0,0,1-5.24-9.08V279.2h4.19v6.09a6.32,6.32,0,0,0,3.15,5.45l46.16,26.65a12.59,12.59,0,0,1,0,21.81L218,365.54a30.47,30.47,0,0,1-30.45,0,26.33,26.33,0,0,0-26.18,0l-22.16,12.69a5.25,5.25,0,0,0,0,9.1l12.72,7.32Z" style="fill:#455a64"></path><path d="M214.28,285.29V279.2h-4.19v6.09a10.5,10.5,0,0,0,1.43,5.28l3.63-2.1A6.38,6.38,0,0,1,214.28,285.29Z" style="opacity:0.30000000000000004"></path><path d="M144.42,395.43v.07s0-.05,0-.07Z" style="fill:#37474f"></path><path d="M155.39,403.14l-9.88-5.72a2.2,2.2,0,0,1-1.09-1.89v6.73h0a2.18,2.18,0,0,0,1.08,1.95l9.88,5.72,13.17-7.6-5.88-3.4Z" style="fill:#37474f"></path><path d="M145.51,397.42l9.88,5.72,7.29-4.21,5.88-3.39-9.87-5.7a6.55,6.55,0,0,0-6.55,0l-6.62,3.79a2.16,2.16,0,0,0-1.09,1.81s0,.05,0,.07v0A2.2,2.2,0,0,0,145.51,397.42Z" style="fill:#455a64"></path><path d="M156.38,413.63V403.57a2.18,2.18,0,0,1,1.1-1.89l14.16-8.18a.72.72,0,0,1,.8.05h0l-1.95-1.36h0a.71.71,0,0,0-.8-.06l-14.17,8.18a2.2,2.2,0,0,0-1.09,1.9v10.06a.72.72,0,0,0,.35.62h0l1.92,1.34h0A.7.7,0,0,1,156.38,413.63Z" style="fill:#455a64"></path><path d="M156.38,413.63V403.57a2.18,2.18,0,0,1,1.1-1.89l14.16-8.18a.72.72,0,0,1,.8.05h0l-1.95-1.36h0a.71.71,0,0,0-.8-.06l-14.17,8.18a2.2,2.2,0,0,0-1.09,1.9v10.06a.72.72,0,0,0,.35.62h0l1.92,1.34h0A.7.7,0,0,1,156.38,413.63Z" style="fill:#fff;opacity:0.2"></path><path d="M172.44,393.55a.72.72,0,0,0-.8-.05l-14.16,8.18a2.18,2.18,0,0,0-1.1,1.89v10.06a.7.7,0,0,0,.32.6.73.73,0,0,0,.78,0l14.16-8.18a2.2,2.2,0,0,0,1.1-1.9V394.13A.71.71,0,0,0,172.44,393.55Z" style="fill:#455a64"></path><path d="M173.68,412.91a6.07,6.07,0,0,0-2.75-4.77L161,402.42l-.84.49,0,6.36,9.91,5.72a1.92,1.92,0,0,0,2,.18h0l.82-.48h0A2,2,0,0,0,173.68,412.91Zm-2.59-.24a1.54,1.54,0,0,1-.37-.14,2.82,2.82,0,0,1-1.27-2.2,1.09,1.09,0,0,1,0-.26,1.37,1.37,0,0,1,.38.14,2.78,2.78,0,0,1,1.27,2.21A.93.93,0,0,1,171.09,412.67Z" style="fill:#4DA6E7"></path><path d="M173.68,412.91a6.07,6.07,0,0,0-2.75-4.77L161,402.42l-.84.49,0,6.36,9.91,5.72a1.92,1.92,0,0,0,2,.18h0l.82-.48h0A2,2,0,0,0,173.68,412.91Zm-2.59-.24a1.54,1.54,0,0,1-.37-.14,2.82,2.82,0,0,1-1.27-2.2,1.09,1.09,0,0,1,0-.26,1.37,1.37,0,0,1,.38.14,2.78,2.78,0,0,1,1.27,2.21A.93.93,0,0,1,171.09,412.67Z" style="fill:#fff;opacity:0.5"></path><path d="M173.68,412.91a6.07,6.07,0,0,0-2.75-4.77L161,402.42l-.84.49,9.9,5.72a6.08,6.08,0,0,1,2.76,4.77,1.94,1.94,0,0,1-.8,1.77h0l.82-.48h0A2,2,0,0,0,173.68,412.91Z" style="opacity:0.2"></path><g style="opacity:0.2"><path d="M169.45,410.33a1.09,1.09,0,0,1,0-.26c-.52-.11-.89.22-.9.88a2.8,2.8,0,0,0,1.27,2.19c.63.36,1.15.15,1.26-.46a1.36,1.36,0,0,1-.39-.15A2.82,2.82,0,0,1,169.45,410.33Z"></path></g><path d="M181.39,408.66a6.07,6.07,0,0,0-2.75-4.77l-9.91-5.72-.84.49,0,6.37,9.91,5.72a1.94,1.94,0,0,0,2,.18h0l.82-.48h0l0,0h0A2,2,0,0,0,181.39,408.66Zm-2.58-.23a1.3,1.3,0,0,1-.38-.15,2.8,2.8,0,0,1-1.27-2.19,1.18,1.18,0,0,1,0-.27,1.3,1.3,0,0,1,.38.15,2.8,2.8,0,0,1,1.28,2.2A2,2,0,0,1,178.81,408.43Z" style="fill:#4DA6E7"></path><path d="M181.39,408.66a6.07,6.07,0,0,0-2.75-4.77l-9.91-5.72-.84.49,0,6.37,9.91,5.72a1.94,1.94,0,0,0,2,.18h0l.82-.48h0l0,0h0A2,2,0,0,0,181.39,408.66Zm-2.58-.23a1.3,1.3,0,0,1-.38-.15,2.8,2.8,0,0,1-1.27-2.19,1.18,1.18,0,0,1,0-.27,1.3,1.3,0,0,1,.38.15,2.8,2.8,0,0,1,1.28,2.2A2,2,0,0,1,178.81,408.43Z" style="fill:#fff;opacity:0.5"></path><path d="M181.39,408.66a6.07,6.07,0,0,0-2.75-4.77l-9.91-5.72-.84.49,9.91,5.72a6.07,6.07,0,0,1,2.75,4.77,2,2,0,0,1-.8,1.78h0l.82-.48h0l0,0h0A2,2,0,0,0,181.39,408.66Z" style="opacity:0.2"></path><g style="opacity:0.2"><path d="M177.16,406.09a1.12,1.12,0,0,1,0-.27c-.51-.11-.89.23-.89.88a2.78,2.78,0,0,0,1.26,2.2c.63.36,1.15.14,1.26-.47a1.47,1.47,0,0,1-.39-.15A2.8,2.8,0,0,1,177.16,406.09Z"></path></g><path d="M230.31,318a9.3,9.3,0,0,0-4.41-6.35L205.43,299.4a8.28,8.28,0,0,1-4-7.1v-9.75l-46.25,26.74-3.86,2.23v11a8.28,8.28,0,0,0,4.14,7.17l22,12.66a23.28,23.28,0,0,0,23.19,0L225.73,328A9.42,9.42,0,0,0,230.31,318Z" style="fill:#4DA6E7"></path><path d="M225.73,324.48l-24.94,14.27a23.66,23.66,0,0,1-23.55,0l-18.51-10.66a7.13,7.13,0,0,1-3.55-6.14V309.29l-3.86,2.23v11a8.28,8.28,0,0,0,4.14,7.17l22,12.66a23.28,23.28,0,0,0,23.19,0L225.73,328a9.42,9.42,0,0,0,4.58-10A9.33,9.33,0,0,1,225.73,324.48Z" style="opacity:0.30000000000000004"></path><path d="M158.73,328.05a7.13,7.13,0,0,1-3.55-6.14V309.29l-3.86,2.23v11a8.28,8.28,0,0,0,4.14,7.17l7.79,4.49v-3.5Z" style="opacity:0.4"></path><path d="M158.73,328.05l4.51,2.6h0l48.29-27.6-6.1-3.65a8.28,8.28,0,0,1-4-7.1v-9.75l-46.25,26.74v12.62A7.13,7.13,0,0,0,158.73,328.05Z" style="opacity:0.30000000000000004"></path><path d="M285.21,75.29c0-2.21-.78-3.77-2-4.51h0l0,0,0,0-7.41-4.29h0c-1.3-.82-3.12-.75-5.15.42L73.94,180.08c-.26.15-.52.32-.77.49l-.23.18c-.17.13-.35.26-.51.4l-.26.22-.47.42c-.08.08-.16.17-.25.25l-.44.47-.23.26c-.14.17-.29.34-.43.52l-.2.25c-.14.19-.29.39-.43.6l-.15.22c-.16.23-.3.46-.45.7l-.1.16c-.17.29-.33.58-.49.88h0c-.09.18-.18.36-.26.55s-.09.17-.13.26l-.21.5-.13.33-.17.47-.13.37c0,.15-.09.3-.13.44s-.07.28-.11.42-.07.27-.1.41l-.09.45-.06.37a4.78,4.78,0,0,0-.06.53c0,.09,0,.19,0,.29,0,.27,0,.54,0,.8l.36,158.18c0,2.12.72,3.63,1.88,4.41h0a3.84,3.84,0,0,0,.39.22l7.31,4.26.11.06,0,0c1.28.67,3,.54,4.91-.56L278.51,245.69a15.58,15.58,0,0,0,7.06-12.23Zm-12,6.83-118.3,68.12h0l-34.7,20h0L85,190.52,278.24,79.23Z" style="fill:#4DA6E7"></path><path d="M74.8,354.86l-.36-158.17a15.53,15.53,0,0,1,7.06-12.22L278.11,71.24c1.94-1.12,3.7-1.23,5-.52l-7.41-4.29h0c-1.3-.82-3.12-.75-5.15.42L73.94,180.08a15.57,15.57,0,0,0-7.06,12.22l.36,158.18c0,2.12.72,3.63,1.88,4.41h0a3.84,3.84,0,0,0,.39.22l7.31,4.26C75.58,358.63,74.8,357.07,74.8,354.86Z" style="fill:#4DA6E7"></path><path d="M275.69,66.43h0c-1.3-.82-3.12-.75-5.15.42L73.94,180.08a14.88,14.88,0,0,0-5.41,6l7.57,4.37a14.74,14.74,0,0,1,5.4-6L278.11,71.24c1.94-1.12,3.7-1.23,5-.52Z" style="fill:#fff;opacity:0.30000000000000004"></path><path d="M66.88,192.3l.36,158.18c0,2.12.72,3.63,1.88,4.41h0a3.84,3.84,0,0,0,.39.22l7.31,4.26c-1.25-.75-2-2.31-2-4.52l-.36-158.17a13.82,13.82,0,0,1,1.66-6.21l-7.57-4.37A14,14,0,0,0,66.88,192.3Z" style="opacity:0.2"></path><path d="M283.18,70.77l0,0,0,0Z" style="fill:#ffa8a7"></path><path d="M285.21,75.29c0-2.21-.78-3.77-2-4.51l0,0,0,0c-1.29-.71-3.05-.6-5,.52L81.5,184.47a15.53,15.53,0,0,0-7.06,12.22l.36,158.17c0,2.21.78,3.77,2,4.52l.11.06,0,0c1.28.67,3,.54,4.91-.56L278.51,245.69a15.58,15.58,0,0,0,7.06-12.23ZM275,239.63,81.77,350.92l-.34-154.25A8.75,8.75,0,0,1,85,190.52L278.24,79.23l.34,154.25A8.75,8.75,0,0,1,275,239.63Z" style="fill:#4DA6E7"></path><path d="M278.24,79.23l-5,2.89L273.57,231a8.8,8.8,0,0,1-3.57,6.15L81.76,345.59v5.33L275,239.63a8.75,8.75,0,0,0,3.56-6.15Z" style="fill:#4DA6E7"></path><path d="M278.24,79.23l-5,2.89L273.57,231a8.8,8.8,0,0,1-3.57,6.15L81.76,345.59v5.33L275,239.63a8.75,8.75,0,0,0,3.56-6.15Z" style="opacity:0.30000000000000004"></path><path d="M273.57,231l-.34-148.92L85,190.52a8.75,8.75,0,0,0-3.56,6.15l.33,148.92L270,237.19A8.8,8.8,0,0,0,273.57,231Z" style="fill:#455a64"></path><g style="opacity:0.2"><polygon points="232.32 105.68 166.07 297.04 188.73 284 254.98 92.63 232.32 105.68" style="fill:#fff"></polygon><polygon points="178.72 136.54 112.47 327.9 125.65 320.32 191.9 128.96 178.72 136.54" style="fill:#fff"></polygon><polygon points="120.23 170.22 81.62 281.77 81.76 345.59 88.68 341.61 154.93 150.24 120.23 170.22" style="fill:#fff"></polygon><polygon points="273.39 150.4 236.7 256.37 249.02 249.28 273.45 178.7 273.39 150.4" style="fill:#fff"></polygon><polygon points="273.24 82.12 268.96 84.58 202.71 275.94 211.52 270.87 273.26 92.53 273.24 82.12" style="fill:#fff"></polygon></g></g><g id="freepik--Sparkles--inject-3"><path d="M106.82,223l1,6.13a2.62,2.62,0,0,0,3.86,2.2l5.81-2.26-5.8,4.46a10.64,10.64,0,0,0-3.84,6.64l-.94,7.23-1-6.12a2.62,2.62,0,0,0-3.86-2.2l-5.81,2.25,5.8-4.45a10.66,10.66,0,0,0,3.84-6.65Z" style="fill:#4DA6E7"></path><path d="M110.11,204.32l.63,3.9a1.67,1.67,0,0,0,2.46,1.4l3.7-1.44L113.2,211a6.75,6.75,0,0,0-2.44,4.23l-.6,4.61-.62-3.9a1.67,1.67,0,0,0-2.46-1.41l-3.7,1.44,3.69-2.84a6.79,6.79,0,0,0,2.45-4.23Z" style="fill:#4DA6E7"></path><path d="M268.52,95.89l1,6.12a2.63,2.63,0,0,0,3.87,2.2l5.81-2.25-5.81,4.45a10.65,10.65,0,0,0-3.83,6.65l-.94,7.23-1-6.12a2.62,2.62,0,0,0-3.86-2.21l-5.82,2.26,5.81-4.45a10.66,10.66,0,0,0,3.84-6.65Z" style="fill:#4DA6E7"></path><path d="M275.29,77.4l.62,3.9a1.66,1.66,0,0,0,2.46,1.4l3.7-1.43-3.69,2.83a6.84,6.84,0,0,0-2.45,4.24l-.59,4.6-.63-3.9a1.66,1.66,0,0,0-2.46-1.4l-3.7,1.43,3.7-2.83A6.78,6.78,0,0,0,274.69,82Z" style="fill:#4DA6E7"></path><path d="M231.94,232.27l.62,3.9a1.67,1.67,0,0,0,2.46,1.41l3.7-1.44L235,239a6.77,6.77,0,0,0-2.44,4.23l-.6,4.6-.62-3.9a1.67,1.67,0,0,0-2.46-1.4L225.2,244l3.7-2.84a6.78,6.78,0,0,0,2.44-4.23Z" style="fill:#4DA6E7"></path><path d="M93.55,220.15l.49,3A1.3,1.3,0,0,0,96,224.29l2.9-1.12L96,225.39a5.3,5.3,0,0,0-1.91,3.31l-.46,3.6-.49-3.05a1.31,1.31,0,0,0-1.93-1.1l-2.89,1.13,2.89-2.22a5.26,5.26,0,0,0,1.91-3.31Z" style="fill:#4DA6E7"></path><g style="opacity:0.8"><path d="M106.82,223l1,6.13a2.62,2.62,0,0,0,3.86,2.2l5.81-2.26-5.8,4.46a10.64,10.64,0,0,0-3.84,6.64l-.94,7.23-1-6.12a2.62,2.62,0,0,0-3.86-2.2l-5.81,2.25,5.8-4.45a10.66,10.66,0,0,0,3.84-6.65Z" style="fill:#fff"></path><path d="M110.11,204.32l.63,3.9a1.67,1.67,0,0,0,2.46,1.4l3.7-1.44L113.2,211a6.75,6.75,0,0,0-2.44,4.23l-.6,4.61-.62-3.9a1.67,1.67,0,0,0-2.46-1.41l-3.7,1.44,3.69-2.84a6.79,6.79,0,0,0,2.45-4.23Z" style="fill:#fff"></path><path d="M268.52,95.89l1,6.12a2.63,2.63,0,0,0,3.87,2.2l5.81-2.25-5.81,4.45a10.65,10.65,0,0,0-3.83,6.65l-.94,7.23-1-6.12a2.62,2.62,0,0,0-3.86-2.21l-5.82,2.26,5.81-4.45a10.66,10.66,0,0,0,3.84-6.65Z" style="fill:#fff"></path><path d="M275.29,77.4l.62,3.9a1.66,1.66,0,0,0,2.46,1.4l3.7-1.43-3.69,2.83a6.84,6.84,0,0,0-2.45,4.24l-.59,4.6-.63-3.9a1.66,1.66,0,0,0-2.46-1.4l-3.7,1.43,3.7-2.83A6.78,6.78,0,0,0,274.69,82Z" style="fill:#fff"></path><path d="M231.94,232.27l.62,3.9a1.67,1.67,0,0,0,2.46,1.41l3.7-1.44L235,239a6.77,6.77,0,0,0-2.44,4.23l-.6,4.6-.62-3.9a1.67,1.67,0,0,0-2.46-1.4L225.2,244l3.7-2.84a6.78,6.78,0,0,0,2.44-4.23Z" style="fill:#fff"></path><path d="M93.55,220.15l.49,3A1.3,1.3,0,0,0,96,224.29l2.9-1.12L96,225.39a5.3,5.3,0,0,0-1.91,3.31l-.46,3.6-.49-3.05a1.31,1.31,0,0,0-1.93-1.1l-2.89,1.13,2.89-2.22a5.26,5.26,0,0,0,1.91-3.31Z" style="fill:#fff"></path></g></g><g id="freepik--Character--inject-3"><path d="M292.15,221c-4.34-2.66-6.94-10.76-9.3-9.8s1.39,5.25.39,5.94-5-1.79-6.54-3.41-4.23-3.76-6.2.81,1.68,8.74,6.95,11.35c4.78,2.36,7.85,2.85,11.41,4.53a19.59,19.59,0,0,0,4.34-8.87A11.06,11.06,0,0,1,292.15,221Z" style="fill:#ffa8a7"></path><path d="M338.38,196.12c-7.1-2-12,1.47-14.58,7.8l-9.5,23.31s-15.5-3.13-21.1-5.71a19.59,19.59,0,0,1-4.34,8.87c.36.17.72.34,1.09.54,2.8,1.48,16.31,7.89,24.41,11.41a7.4,7.4,0,0,0,9.48-3.29C332.32,223.29,340.81,203.21,338.38,196.12Z" style="fill:#455a64"></path><path d="M311.62,370a9.13,9.13,0,0,0,6.81,2.49,20.68,20.68,0,0,0,7.22-1.8c2.3-.94,5.2-3.58,7.69-3.53a59.11,59.11,0,0,0,7.29-.49,37.61,37.61,0,0,0-1-9.79L328,356.58c-3.14,4.27-9.25,7.82-13.87,9.15a4.06,4.06,0,0,0-2.88,3,.15.15,0,0,1,0,.07A4.84,4.84,0,0,0,311.62,370Z" style="fill:#37474f"></path><path d="M333.34,367.17c-2.49-.05-5.39,2.59-7.69,3.53a20.68,20.68,0,0,1-7.22,1.8,9.13,9.13,0,0,1-6.81-2.49,4.84,4.84,0,0,1-.41-1.17.15.15,0,0,0,0-.07,3.76,3.76,0,0,0,0,1.53,5,5,0,0,0,.41,1.18,9.08,9.08,0,0,0,6.81,2.48,20.68,20.68,0,0,0,7.22-1.8c2.3-.94,5.2-3.57,7.69-3.52a55.91,55.91,0,0,0,7.18-.41c.06-.52.09-1,.11-1.55A59.11,59.11,0,0,1,333.34,367.17Z" style="fill:#263238"></path><path d="M369.21,376.44a17.58,17.58,0,0,1-.38,3.76,8.68,8.68,0,0,1-3.46,5.47,11.24,11.24,0,0,1-5.5,1.46,12.4,12.4,0,0,1-5-.52,5.68,5.68,0,0,1-2.95-2.39.2.2,0,0,1,0,.07,5.28,5.28,0,0,0,3.4,3.5,12.17,12.17,0,0,0,5,.51,11.14,11.14,0,0,0,5.51-1.45,8.68,8.68,0,0,0,3.46-5.47,18.3,18.3,0,0,0,.37-3.76,6.35,6.35,0,0,1,2-4.59,9.53,9.53,0,0,0,.89-.91,2.17,2.17,0,0,0,.54-1.63c0-.24,0-.47-.07-.69-.46.53-1.54,1.8-1.81,2.05A6.27,6.27,0,0,0,369.21,376.44Z" style="fill:#263238"></path><path d="M359.65,363.36a13.56,13.56,0,0,1-1,7.61,29,29,0,0,1-4.07,6.63,19.5,19.5,0,0,0-2.12,3.07,5.47,5.47,0,0,0-.61,3.55,5.68,5.68,0,0,0,2.95,2.39,12.4,12.4,0,0,0,5,.52,11.24,11.24,0,0,0,5.5-1.46,8.68,8.68,0,0,0,3.46-5.47,17.58,17.58,0,0,0,.38-3.76,6.27,6.27,0,0,1,2-4.59c.27-.25,1.35-1.52,1.81-2.05a13.78,13.78,0,0,0-1.87-5.31Z" style="fill:#37474f"></path><path d="M327.47,255.4s-2.94,38.34-2.69,49,1.34,52.81,1.34,52.81c6,3.49,14.73.89,14.73.89.71-33.64,3.91-40.88,1.73-53.19,1.54-9.14,3.66-30.44,3.66-30.44,3,25.62,5.18,38.82,5.18,38.82l7.17,51.28c5.89,3.05,13.31,0,13.31,0,0-29.23.64-41.6-2.43-60.89a440.07,440.07,0,0,0-3-51Z" style="fill:#455a64"></path><path d="M334.59,265.3c2.06,5,8.5,5,8.5,5l1.16,5.68-.43,20.19c1.23-9.82,2.42-21.7,2.42-21.7l-.8-6.08A17.06,17.06,0,0,1,334.59,265.3Z" style="opacity:0.2"></path><path d="M361.16,164.7a7.19,7.19,0,0,0-4.57-2.43l-23.87,2.22c-2.75,5.83-.55,9.68-.55,9.68-.37,8.9-.68,14.55,3.23,16.43a18.4,18.4,0,0,0,8.72,1.21,20.72,20.72,0,0,0,8-2.13l.13-.07a6.7,6.7,0,0,0,3.42-4.49,36,36,0,0,0,.82-5.26,22.94,22.94,0,0,1,.33-3,5.43,5.43,0,0,1,1.34-2.67,3.11,3.11,0,0,1,2.75-.92,2.72,2.72,0,0,1,.5.19C362.08,169.51,362.28,166.08,361.16,164.7Z" style="fill:#37474f"></path><path d="M352.42,165.38a8.26,8.26,0,0,0,.32,5,36.27,36.27,0,0,1,1.51,4.85,7.93,7.93,0,0,1-.65,4.9,5.79,5.79,0,0,1-3.81,3c-2.56.54-5.07-.95-7.64-1.45A10.71,10.71,0,0,0,335,183a1.25,1.25,0,0,1-1.88-1c-.31-5.12-.3-13.15.46-16.91Z" style="fill:#ffa8a7"></path><polygon points="354.86 188.25 354.86 188.25 354.85 188.25 354.86 188.25" style="fill:#ffa8a7"></polygon><path d="M356.94,182.42s-.05,2.08-.1,4.56a7.18,7.18,0,0,0,2.22-3.45A3.22,3.22,0,0,1,356.94,182.42Z" style="fill:#37474f"></path><path d="M334,160.74l-3-2.06a6.31,6.31,0,0,0,1.14,5.84,9.42,9.42,0,0,0,5.23,3.08,19.82,19.82,0,0,0,6.15.28,45.5,45.5,0,0,0,8.88-1.62,7.18,7.18,0,0,0,3.49-1.83,4.62,4.62,0,0,0,.18-5.44,6.92,6.92,0,0,0-4.9-2.84,18.72,18.72,0,0,0-5.91.46,18.14,18.14,0,0,1-5.91.43,6.17,6.17,0,0,1-4.76-3.16C332.9,156.59,334,160.74,334,160.74Z" style="fill:#37474f"></path><polygon points="341.44 174.45 337.09 179.73 341.08 181.14 341.44 174.45" style="fill:#f28f8f"></polygon><path d="M344.73,183.76l-3.36,1a2.07,2.07,0,0,0,2.27,1A1.85,1.85,0,0,0,344.73,183.76Z" style="fill:#f28f8f"></path><path d="M344.73,183.76l-3.36,1a2.07,2.07,0,0,0,2.27,1A1.85,1.85,0,0,0,344.73,183.76Z" style="opacity:0.30000000000000004"></path><path d="M342.54,185.76a1.81,1.81,0,0,0,1.1.07,1.69,1.69,0,0,0,1.09-1.52,2,2,0,0,0-1.3.24A2,2,0,0,0,342.54,185.76Z" style="fill:#f28f8f"></path><path d="M347.36,175.61a1.2,1.2,0,1,1-1.13-1.26A1.2,1.2,0,0,1,347.36,175.61Z" style="fill:#263238"></path><path d="M337.36,174.69a1.21,1.21,0,0,1-1.26,1.13,1.2,1.2,0,1,1,1.26-1.13Z" style="fill:#263238"></path><path d="M336.45,169.87l-2.74,1.69a1.71,1.71,0,0,1,.61-1.85A2,2,0,0,1,336.45,169.87Z" style="fill:#263238"></path><path d="M346.68,170.28l2.55,2a1.69,1.69,0,0,0-.42-1.9A2,2,0,0,0,346.68,170.28Z" style="fill:#263238"></path><path d="M366,196.68l-5-.53L336.75,196c-8.52,0-9.61,10.49-10.1,19.77s1.08,27.95-1,40.42l10.14,6.55,2.85-3.06,4.55,4.23c15.43,0,24.51-8.56,25.68-10Z" style="fill:#4DA6E7"></path><path d="M366,196.68l-5-.53L336.75,196c-8.52,0-9.61,10.49-10.1,19.77s1.08,27.95-1,40.42l10.14,6.55,2.85-3.06,4.55,4.23c15.43,0,24.51-8.56,25.68-10Z" style="fill:#fff;opacity:0.2"></path><path d="M340.73,199.22c-2.27,7.24-.85,17.33,0,21.87,5.76-7.92,11.15-15.87,12.84-19l-8-3.9Z" style="fill:#455a64"></path><path d="M363.05,175.19a3.4,3.4,0,0,0-1.65-1.73,2.72,2.72,0,0,0-.5-.19,3.11,3.11,0,0,0-2.75.92,5.43,5.43,0,0,0-1.34,2.67,22.94,22.94,0,0,0-.33,3,36.41,36.41,0,0,1-.85,5.39,6.64,6.64,0,0,1-3.4,4.37l-.12.06a20.72,20.72,0,0,1-8,2.13v8l11.28-5.57a2.71,2.71,0,0,0,1.34-2.27c0-1.28.06-3.7.09-5,.05-2.48.1-4.56.1-4.56a3.22,3.22,0,0,0,2.12,1.11,2.73,2.73,0,0,0,1.11-.06,4.17,4.17,0,0,0,2.49-2.12,7.77,7.77,0,0,0,.79-3.23A6.61,6.61,0,0,0,363.05,175.19Z" style="fill:#ffa8a7"></path><path d="M353.72,189.52a7.52,7.52,0,0,0,1.39-2.89,6.71,6.71,0,0,1-2.88,3l-.12.06a20.72,20.72,0,0,1-8,2.13v2a20.44,20.44,0,0,0,4.72-1A10.63,10.63,0,0,0,353.72,189.52Z" style="fill:#f28f8f"></path><path d="M344.09,205.87l-2-.48a64.55,64.55,0,0,0-2.42,7.75,77.71,77.71,0,0,0,1.05,8c1.13-1.55,2.24-3.11,3.32-4.63A52.78,52.78,0,0,1,344.09,205.87Z" style="fill:#4DA6E7"></path><path d="M344,206.28c0-.13,0-.28,0-.41l-2-.48-.11.3a2.53,2.53,0,0,0,1.12.59A2.42,2.42,0,0,0,344,206.28Z" style="opacity:0.2"></path><path d="M345.15,200.67l1.56-1,3.64,2a8.42,8.42,0,0,1-4.29,1.7Z" style="fill:#4DA6E7"></path><path d="M342.74,200.28l-.47-1.06-1.84,1.15a3.35,3.35,0,0,0,1.19,1.74Z" style="fill:#4DA6E7"></path><path d="M345.15,200.67l1.56-1,3.64,2a8.42,8.42,0,0,1-4.29,1.7Z" style="opacity:0.2"></path><path d="M342.74,200.28l-.47-1.06-1.84,1.15a3.35,3.35,0,0,0,1.19,1.74Z" style="opacity:0.2"></path><path d="M346.06,203.35a9,9,0,0,0-.91-2.68l-2.41-.39a9.55,9.55,0,0,0-1.12,1.83,8.6,8.6,0,0,0,.48,3.28,4.32,4.32,0,0,0,2,.48A5.23,5.23,0,0,0,346.06,203.35Z" style="fill:#4DA6E7"></path><path d="M344.3,199.82c3.82-.06,6.16,3,9.65,4l7.12-7.69-2.76-4.1c-.55-.82-.71-1.51-1.54-2h0l0,1.49c0,.88-1.06,1.69-1.82,2.13Z" style="fill:#37474f"></path><path d="M344.3,199.82c-2.12-.66-5.29,2-5.29,2,1.11-6.14,4.46-8.56,5.28-8.56Z" style="fill:#37474f"></path><path d="M340,221.63l-2.61,3.51a5.06,5.06,0,0,0-1,3.34l1.75,29.17-3-28.94a5.08,5.08,0,0,1,1.74-4.37Z" style="opacity:0.2"></path><path d="M378.82,255.38a11.43,11.43,0,0,1-4.37-3.58l-1.71,3c-2.25-.91-4.62-1.7-6.86-2.61a4,4,0,0,0-1.71-.41,1.38,1.38,0,0,0-1.32,1,1.9,1.9,0,0,0,.78,1.6,14.12,14.12,0,0,0,4,2.74,22.38,22.38,0,0,1-7,4.44,14.3,14.3,0,0,0-2.36,1.06,3.41,3.41,0,0,0-1.55,2,3.68,3.68,0,0,0,1,3.06,8.79,8.79,0,0,0,6.73,2.79,14.19,14.19,0,0,0,7.09-2.25,38.88,38.88,0,0,0,5.9-4.66,48.73,48.73,0,0,0,6.52-7.14A11.39,11.39,0,0,1,378.82,255.38Z" style="fill:#ffa8a7"></path><path d="M394.31,241.75a8.29,8.29,0,0,0,.72-8.31c-6.79-14.3-15.4-28.72-15.4-28.72-3.48-6-6-8.57-13.72-8.05-3,10.25-.27,15.79,7.21,27.52l9,14.12-7.71,13.49a11.19,11.19,0,0,0,9.61,4.59l.41-.54Z" style="fill:#455a64"></path></g></svg>