<svg xmlns="http://www.w3.org/2000/svg" xmlns:xlink="http://www.w3.org/1999/xlink" width="500" zoomAndPan="magnify" viewBox="0 0 375 374.999991" height="500" preserveAspectRatio="xMidYMid meet" version="1.0"><defs><clipPath id="b1431f8194"><path d="M 187.5 0 C 83.945312 0 0 83.945312 0 187.5 C 0 291.054688 83.945312 375 187.5 375 C 291.054688 375 375 291.054688 375 187.5 C 375 83.945312 291.054688 0 187.5 0 Z M 187.5 0 " clip-rule="nonzero"/></clipPath><clipPath id="c6f2f15040"><path d="M 254.734375 187.5 L 288.898438 187.5 L 288.898438 375 L 254.734375 375 Z M 254.734375 187.5 " clip-rule="nonzero"/></clipPath><clipPath id="e841978a47"><path d="M 86.101562 0 L 120.265625 0 L 120.265625 187.5 L 86.101562 187.5 Z M 86.101562 0 " clip-rule="nonzero"/></clipPath><clipPath id="090b8169c0"><path d="M 79.71875 79.71875 L 295.28125 79.71875 L 295.28125 295.28125 L 79.71875 295.28125 Z M 79.71875 79.71875 " clip-rule="nonzero"/></clipPath><clipPath id="62ef4fe71c"><path d="M 187.5 79.71875 C 127.972656 79.71875 79.71875 127.972656 79.71875 187.5 C 79.71875 247.027344 127.972656 295.28125 187.5 295.28125 C 247.027344 295.28125 295.28125 247.027344 295.28125 187.5 C 295.28125 127.972656 247.027344 79.71875 187.5 79.71875 Z M 187.5 79.71875 " clip-rule="nonzero"/></clipPath><clipPath id="3c509dfa1a"><path d="M 84.339844 84.339844 L 290.660156 84.339844 L 290.660156 290.660156 L 84.339844 290.660156 Z M 84.339844 84.339844 " clip-rule="nonzero"/></clipPath><clipPath id="6ee662ca00"><path d="M 187.5 84.339844 C 130.527344 84.339844 84.339844 130.527344 84.339844 187.5 C 84.339844 244.472656 130.527344 290.660156 187.5 290.660156 C 244.472656 290.660156 290.660156 244.472656 290.660156 187.5 C 290.660156 130.527344 244.472656 84.339844 187.5 84.339844 Z M 187.5 84.339844 " clip-rule="nonzero"/></clipPath><clipPath id="6b48b2105b"><path d="M 99.320312 99.320312 L 275.679688 99.320312 L 275.679688 275.679688 L 99.320312 275.679688 Z M 99.320312 99.320312 " clip-rule="nonzero"/></clipPath><clipPath id="5436d9cbf0"><path d="M 187.5 99.320312 C 138.800781 99.320312 99.320312 138.800781 99.320312 187.5 C 99.320312 236.199219 138.800781 275.679688 187.5 275.679688 C 236.199219 275.679688 275.679688 236.199219 275.679688 187.5 C 275.679688 138.800781 236.199219 99.320312 187.5 99.320312 Z M 187.5 99.320312 " clip-rule="nonzero"/></clipPath><clipPath id="12fb93da1b"><path d="M 103.183594 103.183594 L 271.816406 103.183594 L 271.816406 271.816406 L 103.183594 271.816406 Z M 103.183594 103.183594 " clip-rule="nonzero"/></clipPath><clipPath id="cbba782a5b"><path d="M 187.5 103.183594 C 140.933594 103.183594 103.183594 140.933594 103.183594 187.5 C 103.183594 234.066406 140.933594 271.816406 187.5 271.816406 C 234.066406 271.816406 271.816406 234.066406 271.816406 187.5 C 271.816406 140.933594 234.066406 103.183594 187.5 103.183594 Z M 187.5 103.183594 " clip-rule="nonzero"/></clipPath><clipPath id="70ffaf46b3"><path d="M 122.21875 122.21875 L 252.78125 122.21875 L 252.78125 252.78125 L 122.21875 252.78125 Z M 122.21875 122.21875 " clip-rule="nonzero"/></clipPath><clipPath id="0ca3a1639d"><path d="M 187.5 122.21875 L 208.273438 166.726562 L 252.78125 187.5 L 208.273438 208.273438 L 187.5 252.78125 L 166.726562 208.273438 L 122.21875 187.5 L 166.726562 166.726562 Z M 187.5 122.21875 " clip-rule="nonzero"/></clipPath></defs><rect x="-37.5" width="450" fill="#ffffff" y="-37.499999" height="449.999989" fill-opacity="1"/><rect x="-37.5" width="450" fill="#48392e" y="-37.499999" height="449.999989" fill-opacity="1"/><g clip-path="url(#b1431f8194)"><rect x="-37.5" width="450" fill="#d7c08e" y="-37.499999" height="449.999989" fill-opacity="1"/></g><g clip-path="url(#c6f2f15040)"><path fill="#48392e" d="M 254.734375 187.5 L 288.898438 187.5 L 288.898438 375.003906 L 254.734375 375.003906 Z M 254.734375 187.5 " fill-opacity="1" fill-rule="nonzero"/></g><g clip-path="url(#e841978a47)"><path fill="#48392e" d="M 86.101562 0 L 120.265625 0 L 120.265625 187.503906 L 86.101562 187.503906 Z M 86.101562 0 " fill-opacity="1" fill-rule="nonzero"/></g><g clip-path="url(#090b8169c0)"><g clip-path="url(#62ef4fe71c)"><path fill="#d7c08e" d="M 79.71875 79.71875 L 295.28125 79.71875 L 295.28125 295.28125 L 79.71875 295.28125 Z M 79.71875 79.71875 " fill-opacity="1" fill-rule="nonzero"/></g></g><g clip-path="url(#3c509dfa1a)"><g clip-path="url(#6ee662ca00)"><path fill="#48392e" d="M 84.339844 84.339844 L 290.660156 84.339844 L 290.660156 290.660156 L 84.339844 290.660156 Z M 84.339844 84.339844 " fill-opacity="1" fill-rule="nonzero"/></g></g><g clip-path="url(#6b48b2105b)"><g clip-path="url(#5436d9cbf0)"><path fill="#d7c08e" d="M 99.320312 99.320312 L 275.679688 99.320312 L 275.679688 275.679688 L 99.320312 275.679688 Z M 99.320312 99.320312 " fill-opacity="1" fill-rule="nonzero"/></g></g><g clip-path="url(#12fb93da1b)"><g clip-path="url(#cbba782a5b)"><path fill="#48392e" d="M 103.183594 103.183594 L 271.816406 103.183594 L 271.816406 271.816406 L 103.183594 271.816406 Z M 103.183594 103.183594 " fill-opacity="1" fill-rule="nonzero"/></g></g><g clip-path="url(#70ffaf46b3)"><g clip-path="url(#0ca3a1639d)"><path fill="#d7c08e" d="M 122.21875 122.21875 L 252.78125 122.21875 L 252.78125 252.78125 L 122.21875 252.78125 Z M 122.21875 122.21875 " fill-opacity="1" fill-rule="nonzero"/></g></g></svg>